<mxfile host="app.diagrams.net" modified="2024-01-16T07:16:50.303Z" agent="Mozilla/5.0 (Windows NT 10.0; Win64; x64) AppleWebKit/537.36 (KHTML, like Gecko) Chrome/120.0.0.0 Safari/537.36" etag="DcKlwjD1KEc5QejQIgRA" version="22.1.17" type="github">
  <diagram id="C5RBs43oDa-KdzZeNtuy" name="Page-1">
    <mxGraphModel dx="1728" dy="922" grid="1" gridSize="10" guides="1" tooltips="1" connect="1" arrows="1" fold="1" page="1" pageScale="1" pageWidth="827" pageHeight="1169" math="0" shadow="0">
      <root>
        <mxCell id="WIyWlLk6GJQsqaUBKTNV-0" />
        <mxCell id="WIyWlLk6GJQsqaUBKTNV-1" parent="WIyWlLk6GJQsqaUBKTNV-0" />
        <mxCell id="QLM2p9xFnMOP3z9DizBt-2" value="" style="edgeStyle=orthogonalEdgeStyle;rounded=0;orthogonalLoop=1;jettySize=auto;html=1;" edge="1" parent="WIyWlLk6GJQsqaUBKTNV-1" source="QLM2p9xFnMOP3z9DizBt-0" target="QLM2p9xFnMOP3z9DizBt-1">
          <mxGeometry relative="1" as="geometry" />
        </mxCell>
        <mxCell id="QLM2p9xFnMOP3z9DizBt-0" value="素材1下载" style="rounded=1;whiteSpace=wrap;html=1;fontSize=12;glass=0;strokeWidth=1;shadow=0;fillColor=#dae8fc;strokeColor=#6c8ebf;" vertex="1" parent="WIyWlLk6GJQsqaUBKTNV-1">
          <mxGeometry x="133" y="150" width="120" height="40" as="geometry" />
        </mxCell>
        <mxCell id="QLM2p9xFnMOP3z9DizBt-4" value="" style="edgeStyle=orthogonalEdgeStyle;rounded=0;orthogonalLoop=1;jettySize=auto;html=1;" edge="1" parent="WIyWlLk6GJQsqaUBKTNV-1" source="QLM2p9xFnMOP3z9DizBt-1" target="QLM2p9xFnMOP3z9DizBt-3">
          <mxGeometry relative="1" as="geometry" />
        </mxCell>
        <mxCell id="QLM2p9xFnMOP3z9DizBt-7" value="..." style="edgeLabel;html=1;align=center;verticalAlign=middle;resizable=0;points=[];" vertex="1" connectable="0" parent="QLM2p9xFnMOP3z9DizBt-4">
          <mxGeometry x="-0.0689" relative="1" as="geometry">
            <mxPoint as="offset" />
          </mxGeometry>
        </mxCell>
        <mxCell id="QLM2p9xFnMOP3z9DizBt-1" value="素材2下载" style="whiteSpace=wrap;html=1;fillColor=#dae8fc;strokeColor=#6c8ebf;rounded=1;glass=0;strokeWidth=1;shadow=0;" vertex="1" parent="WIyWlLk6GJQsqaUBKTNV-1">
          <mxGeometry x="133" y="230" width="120" height="40" as="geometry" />
        </mxCell>
        <mxCell id="QLM2p9xFnMOP3z9DizBt-3" value="素材N下载" style="whiteSpace=wrap;html=1;fillColor=#dae8fc;strokeColor=#6c8ebf;rounded=1;glass=0;strokeWidth=1;shadow=0;" vertex="1" parent="WIyWlLk6GJQsqaUBKTNV-1">
          <mxGeometry x="133" y="340" width="120" height="40" as="geometry" />
        </mxCell>
        <mxCell id="QLM2p9xFnMOP3z9DizBt-13" style="edgeStyle=orthogonalEdgeStyle;rounded=0;orthogonalLoop=1;jettySize=auto;html=1;entryX=0.5;entryY=0;entryDx=0;entryDy=0;" edge="1" parent="WIyWlLk6GJQsqaUBKTNV-1" source="QLM2p9xFnMOP3z9DizBt-8" target="QLM2p9xFnMOP3z9DizBt-12">
          <mxGeometry relative="1" as="geometry" />
        </mxCell>
        <mxCell id="QLM2p9xFnMOP3z9DizBt-8" value="素材1" style="rounded=1;whiteSpace=wrap;html=1;fontSize=12;glass=0;strokeWidth=1;shadow=0;fillColor=#dae8fc;strokeColor=#6c8ebf;" vertex="1" parent="WIyWlLk6GJQsqaUBKTNV-1">
          <mxGeometry x="383" y="150" width="120" height="40" as="geometry" />
        </mxCell>
        <mxCell id="QLM2p9xFnMOP3z9DizBt-14" style="edgeStyle=orthogonalEdgeStyle;rounded=0;orthogonalLoop=1;jettySize=auto;html=1;" edge="1" parent="WIyWlLk6GJQsqaUBKTNV-1" source="QLM2p9xFnMOP3z9DizBt-9" target="QLM2p9xFnMOP3z9DizBt-12">
          <mxGeometry relative="1" as="geometry" />
        </mxCell>
        <mxCell id="QLM2p9xFnMOP3z9DizBt-9" value="素材2" style="rounded=1;whiteSpace=wrap;html=1;fontSize=12;glass=0;strokeWidth=1;shadow=0;fillColor=#dae8fc;strokeColor=#6c8ebf;" vertex="1" parent="WIyWlLk6GJQsqaUBKTNV-1">
          <mxGeometry x="383" y="238" width="120" height="40" as="geometry" />
        </mxCell>
        <mxCell id="QLM2p9xFnMOP3z9DizBt-15" style="edgeStyle=orthogonalEdgeStyle;rounded=0;orthogonalLoop=1;jettySize=auto;html=1;entryX=0.5;entryY=1;entryDx=0;entryDy=0;" edge="1" parent="WIyWlLk6GJQsqaUBKTNV-1" source="QLM2p9xFnMOP3z9DizBt-10" target="QLM2p9xFnMOP3z9DizBt-12">
          <mxGeometry relative="1" as="geometry" />
        </mxCell>
        <mxCell id="QLM2p9xFnMOP3z9DizBt-10" value="素材N" style="whiteSpace=wrap;html=1;fillColor=#dae8fc;strokeColor=#6c8ebf;rounded=1;glass=0;strokeWidth=1;shadow=0;" vertex="1" parent="WIyWlLk6GJQsqaUBKTNV-1">
          <mxGeometry x="383" y="340" width="120" height="40" as="geometry" />
        </mxCell>
        <mxCell id="QLM2p9xFnMOP3z9DizBt-11" value="..." style="text;html=1;align=center;verticalAlign=middle;resizable=0;points=[];autosize=1;strokeColor=none;fillColor=none;" vertex="1" parent="WIyWlLk6GJQsqaUBKTNV-1">
          <mxGeometry x="428" y="288" width="30" height="30" as="geometry" />
        </mxCell>
        <mxCell id="QLM2p9xFnMOP3z9DizBt-12" value="下载任务" style="rounded=1;whiteSpace=wrap;html=1;fillColor=#dae8fc;strokeColor=#6c8ebf;" vertex="1" parent="WIyWlLk6GJQsqaUBKTNV-1">
          <mxGeometry x="573" y="228" width="120" height="60" as="geometry" />
        </mxCell>
        <mxCell id="QLM2p9xFnMOP3z9DizBt-16" value="" style="shape=flexArrow;endArrow=classic;html=1;rounded=0;" edge="1" parent="WIyWlLk6GJQsqaUBKTNV-1">
          <mxGeometry width="50" height="50" relative="1" as="geometry">
            <mxPoint x="273" y="257.58000000000004" as="sourcePoint" />
            <mxPoint x="363" y="257.58000000000004" as="targetPoint" />
          </mxGeometry>
        </mxCell>
      </root>
    </mxGraphModel>
  </diagram>
</mxfile>
